<svg id="Layer_1" data-name="Layer 1" xmlns="http://www.w3.org/2000/svg" viewBox="0 0 115.85 104.92"><defs><style>.cls-1{fill:#381c70;}.cls-2{fill:#a24f9d;}.cls-3{fill:#00d3ce;}.cls-4{fill:#68df2a;}.cls-5{fill:#00a0bf;}.cls-6{fill:#f82b38;}.cls-7{fill:#8a1766;}.cls-8{fill:#16bf29;}.cls-9{fill:#f580cf;}.cls-10{fill:#783176;}.cls-11{fill:#f96b11;}.cls-12{fill:#f82d77;}.cls-13{fill:#f8f530;}.cls-14{fill:#c98ac4;}.cls-15{fill:#152b62;}</style></defs><g id="Lqoucs"><path class="cls-1" d="M58.78,13.74A36.31,36.31,0,0,1,65.63,6.8c10-7.61,20.53-8.14,31.55-2.68,8.29,4.1,13.5,10.88,16.51,19.49a42,42,0,0,1,2,16.92c-.59,8.81-4,16.53-9.09,23.59a116.25,116.25,0,0,1-13.46,15,177.18,177.18,0,0,1-27.06,22c-2,1.27-4,2.45-6,3.53a2.88,2.88,0,0,1-2.42.09c-5-1.68-9.12-4.89-13.34-7.87A188.24,188.24,0,0,1,19.14,75.08,3.58,3.58,0,0,0,18,74.15a.8.8,0,0,1-.37-.28c-1.63-2.57-3.93-4.56-5.8-6.93C8,62.18,4.65,57.19,2.6,51.43a43.57,43.57,0,0,1-2-21.85A37,37,0,0,1,8.23,12,32.2,32.2,0,0,1,24.72,1.21,27.54,27.54,0,0,1,38.39.58,29.55,29.55,0,0,1,51.23,7.07a32.6,32.6,0,0,1,6.29,6.82c.55,1,.61,1,1.2.07A.9.9,0,0,0,58.78,13.74ZM35.59,85a2.1,2.1,0,0,0,1.11.9c.37.33.73.68,1.12,1a49.69,49.69,0,0,0,4.9,3.88A42.32,42.32,0,0,0,47.07,94a65.3,65.3,0,0,0,6.61,4.33,11.37,11.37,0,0,0,2.07,1.29A7.09,7.09,0,0,0,58.39,101c.92.06,1.76-.82,2.61-1.34a102.5,102.5,0,0,0,8.86-5.83,1.94,1.94,0,0,0,.83-1.28,35.11,35.11,0,0,1,1.45-5,2.81,2.81,0,0,1,4.41-1.34c.41.29.81.59,1.2.91.21.16.43.28.65.1.63-.52,1.25-1.06,1.86-1.6.17-.16.17-.36-.13-.37a5.48,5.48,0,0,1-3.83-2.12c-.07-.17-.13-.35-.21-.51a4,4,0,0,1,.9-4.92,5,5,0,0,1,3.69-1.37,11.86,11.86,0,0,0,6.15-1.53,7.23,7.23,0,0,0,3.8-4.36c.25-1,0-1.54-.8-1.78a8,8,0,0,0-2-.45c0-.2-.15-.26-.27-.35-2-1.46-1.81-3.59.48-4.54a6.5,6.5,0,0,1,6.29.35,11.52,11.52,0,0,0,1.74,1.21c.14.56.63.88.91,1.35a9.22,9.22,0,0,1,.77,2.75c.41-.93,1.35-1.22,1.36-2.13a4.21,4.21,0,0,1,1-2.5c.38-.53,1-.93.94-1.72a3.73,3.73,0,0,1,3.45-3.44,1.77,1.77,0,0,0,1.18-.74A27.37,27.37,0,0,0,107.67,55c.1-.19.22-.45,0-.54-1-.31-1.57-1.13-2.39-1.64a1.71,1.71,0,0,0-1.23-.75c-.83-.18-1.66-.31-2.48-.49a3.48,3.48,0,0,1-2.69-2.93,3.85,3.85,0,0,1,1.66-2.77c1.66-1.37,1.25-1.28-.09-2a2.33,2.33,0,0,1-1.26-2.3c0-.47.33-.83.39-1.28l.75-.81a22.91,22.91,0,0,1,3.58-2.17,2.18,2.18,0,0,1,2.33.1,11.24,11.24,0,0,0,2,1.2A4.29,4.29,0,0,1,109.88,45a10.22,10.22,0,0,1-1.37,1.42c-.26.06-.6.12-.65.37s.32.35.52.49c.51.37,1,.75,1.54,1.09.1.07.24.27.4.12s-.24-.25-.13-.44c.34,0,.35-.28.4-.51.19-.85.41-1.7.56-2.55a18.62,18.62,0,0,0,.47-4.07,7.49,7.49,0,0,0,.22-2.26,30.59,30.59,0,0,0-.2-6.74c-.2.17-.29.23-.36.3a8.12,8.12,0,0,1-7.11,2.5A9.47,9.47,0,0,1,101,33.6a19.4,19.4,0,0,1-3-4.11,1.76,1.76,0,0,0-1.36-.84,5.68,5.68,0,0,1-3-1,2.61,2.61,0,0,1-.26-2.82c.78-1.69.77-1.69-.83-2.71-1.44-2-1.38-3.31.23-5.15.5-.57,1-1.12,1.56-1.68,1.38-.61,2.78-1.16,4.33-.63a5.42,5.42,0,0,1,2.75,3.47c.13.58.17,1.19.25,1.78a7,7,0,0,1-1.26,3.5c-.22.25,0,.43.21.56l3.11,2,2.1,1.76c.4.33.67.25.77-.26a5.38,5.38,0,0,0,.19-2.25c.15-1.71,0-3.43.1-5.14.05-.83-.26-1.24-1.06-1.33a1.1,1.1,0,0,0-.22-.21,11,11,0,0,1-5.07-4.85,2.89,2.89,0,0,1,.46-2c.12-.18.18-.37,0-.49-.8-.51-1.4-1.29-2.25-1.73-.44-.23-.68-.09-.92.36a5.43,5.43,0,0,1-8.21,1.79,11.53,11.53,0,0,1-2.42-2.89,11.29,11.29,0,0,0-.74-1.93c-.11-.57-.23-1.13-.31-1.71a.52.52,0,0,0-.51-.5A3.44,3.44,0,0,0,83,5c-.51.34-1,.62-1.58.92a2,2,0,0,1-2,0c-.45-.23-.9-.46-1.33-.71a.8.8,0,0,0-.67-.13,23.08,23.08,0,0,0-3,1c-.24.1-.51.19-.52.53a6.45,6.45,0,0,0,.41,3c.43.91.76,1,1.39.18a2.51,2.51,0,0,1,2.87-1l1,1.17a8.74,8.74,0,0,1-.15,5.4c-1.13,1.74-1.79,2-3.19,1.13a15.18,15.18,0,0,1-.73-1.38c-.24-.65-.53-.55-.87-.12-.71.9-1.41,1.81-2.11,2.72a8.62,8.62,0,0,1-1.66.77,3.35,3.35,0,0,1-3.57-2.17,25.22,25.22,0,0,0-1-3.82,2.05,2.05,0,0,0-.45-1.31l-1.36,1.48a4.46,4.46,0,0,0-.42.34,28.1,28.1,0,0,0-4.17,5.46,2,2,0,0,1-2.33,1.2c-.45-.1-.55.1-.58.49a3.93,3.93,0,0,1-1.17,2.53,4.32,4.32,0,0,1-1.91.69c-.83-.11-1.65-.24-2.48-.33-.38,0-.89-.13-1,.33s.28.71.67.9a13.77,13.77,0,0,0,2.52,1.46,9,9,0,0,1,3.19,2.53,6.53,6.53,0,0,1,1,3.19,9.48,9.48,0,0,1-.64,2.33,4.29,4.29,0,0,1-6.92,1.23c-.24-.24-.47-.49-.71-.74-.73-1.31-1.37-2.66-2-4A22.75,22.75,0,0,0,45,26.09a6.43,6.43,0,0,1-.74-4.81,14.53,14.53,0,0,1,1.93-4.4A10.85,10.85,0,0,1,49,13.75c1-.69,2-1.23,3.18-.43,0,0,.09,0,.14-.05s0-.12,0-.15a42.14,42.14,0,0,0-3.63-3.31.45.45,0,0,0-.52-.09,3.89,3.89,0,0,1-1.47.21c-1.21-.36-2.33-.85-2.56-2.27a1.69,1.69,0,0,0-1.27-1.44,6.66,6.66,0,0,1-.72-.33,16.55,16.55,0,0,0-5.09-1.44c1.88,2.19,4.22,4,4.91,7a13.46,13.46,0,0,1-.21,3.35c0,.09-.08.18-.11.28-.46,1.73,0,3.42.19,5.13a8.73,8.73,0,0,1-.42,4.61c-1.23,2.76-3.74,3.07-5.42,1.39a1.76,1.76,0,0,0-2.25-.32,6,6,0,0,1-.74.29A2.77,2.77,0,0,1,29.16,24a9.55,9.55,0,0,1,1.17-6.28c.82-1.71,2.64-2.77,4.41-.67a3.59,3.59,0,0,0,.39.39,2.59,2.59,0,0,0,1.64.72.74.74,0,0,0,.82-.69,2.28,2.28,0,0,0-1.24-2.44c-.81-.36-1.64-.7-2.46-1.05A5.34,5.34,0,0,1,32.4,11a15.25,15.25,0,0,1,.52-6.12c0-.2.24-.43.09-.59s-.44,0-.65.08c-.79.29-1.56.66-2.37.91-.5.15-.53.3-.26.69a2.34,2.34,0,0,1,0,2.89,9.31,9.31,0,0,0-1.37,7.44,1,1,0,0,0,0,.23c0,2.59-1.59,3.92-4.11,3.45-.7-.13-1.39-.31-2.08-.47a22.1,22.1,0,0,1-4.07-2.17,8.31,8.31,0,0,0-3.73-1.21,38.39,38.39,0,0,0-3.87.13.94.94,0,0,0-.89.5,34.91,34.91,0,0,0-3.35,6.73,24.57,24.57,0,0,0-1.58,5.71,31.2,31.2,0,0,0-.58,9.54,34.91,34.91,0,0,0,.72,6.36c0,.2.1.35.34.36s.31-.13.39-.31c.18-.41.37-.82.58-1.21C7.51,41.38,10,41,12.05,43A8.46,8.46,0,0,1,14,45.84a5.43,5.43,0,0,1-.86,5.1l-.32.23c-.07,0-.11,0-.1.06a2.49,2.49,0,0,1-1.51.4c-.82-.12-.77.32-.54.8a6.92,6.92,0,0,1,.17,5.48,1.17,1.17,0,0,0,0,1.12,33.78,33.78,0,0,0,2,2.76,2.9,2.9,0,0,0,.77,1c.17.54.64.87.93,1.33a1,1,0,0,0,1.45.33,7.08,7.08,0,0,1,3,0c3.07.9,4.13,3.28,2.87,6.35-.62.47-.63.91,0,1.45a23.9,23.9,0,0,1,2.07,2.08c.46.52.88.6,1.39.12l1.87-.28a3.51,3.51,0,0,1,3.09,2.55c.15.48.54.34.86.32a2.76,2.76,0,0,1,2.72,1.55,9.21,9.21,0,0,1,.5,1.16.23.23,0,0,0,0,.32l-.07,2.18c-.18.26-.34.53-.53.77s-.19.33,0,.48a12.49,12.49,0,0,0,1.84,1.47ZM25.33,9.36C25.34,7,23.74,6,22,6.68a4,4,0,0,0-1.82,1.58c-.73,1.07-.68,1.48.41,2.18a20.45,20.45,0,0,1,2.89,1.79c.18.17.34.11.47-.07A6.56,6.56,0,0,0,25.33,9.36Z"/><path class="cls-2" d="M58.78,13.74a.9.9,0,0,1-.06.22c-.59.93-.65.93-1.2-.07A4.14,4.14,0,0,0,58.78,13.74Z"/><path class="cls-3" d="M34.25,82.22,34.32,80c.17-.13.1-.24,0-.32a9.21,9.21,0,0,0-.5-1.16A2.76,2.76,0,0,0,31.05,77c-.32,0-.71.16-.86-.32a3.51,3.51,0,0,0-3.09-2.55c.79-1.2,2.11-1.58,3.3-2.18a2.49,2.49,0,0,0,4.41,0c.3-.49.53-1,.79-1.54l2.86-.83c1.14.39,1.91-.21,2.62-1A70.18,70.18,0,0,0,48,66.33c.24.28.49.55.71.85.58.75,1.09,1.56,1.72,2.27,1.59,1.77,3.48,1.77,5.14.06A8.75,8.75,0,0,0,57.44,66a15.79,15.79,0,0,1,1-3.24,35.53,35.53,0,0,0,3.75-1.33A7.78,7.78,0,0,0,68,63.07a6,6,0,0,0,5.24-3.89,18.24,18.24,0,0,0,.55-1.82l7.12-2.44a10.22,10.22,0,0,0,5.89-2.05c.14,0,.26,0,.31-.18h0c.31.07.56-.11.83-.19,1-.3,2-.62,2.93-.93a3.43,3.43,0,0,0-.41,2.94c.17.43-.09.41-.4.36-2-.36-2.82.13-3.39,1.94a.49.49,0,0,0,0,.82,4.35,4.35,0,0,0,.91,1.64,1.33,1.33,0,0,1-.78.5c-2.79.94-5.59,1.86-8.37,2.86a6.05,6.05,0,0,0-2,.81,8,8,0,0,0-1.83.58,35.43,35.43,0,0,0-3.73,1.24c-1.94.65-3.85,1.44-5.83,2A7,7,0,0,0,61.14,67a6.26,6.26,0,0,0-3.78,3c-.87.3-1.73.62-2.6.88-1.87.55-3.63,1.4-5.53,1.82-.3-.58-.55-1.2-.89-1.75a4.46,4.46,0,0,0-3.08-2.27,2.26,2.26,0,0,0-2.38,1.18,2,2,0,0,0,.63,2.41,12,12,0,0,0,1.11.75c.05.32-.14.68.17,1l-.07.31a8,8,0,0,1-1.92.52,10.38,10.38,0,0,0-.59-1,2.93,2.93,0,0,0-5.17.43,15.36,15.36,0,0,0-1.42,4.19c-.6,3.35,1.54,6.31,4.9,6.31l-3.7,1c-.45-.2-.65-.8-1.23-.78l0,0c0-.3-.31-.42-.44-.64C34.75,83.64,33.79,83.23,34.25,82.22Z"/><path class="cls-2" d="M46.16,16.88a14.53,14.53,0,0,0-1.93,4.4A6.43,6.43,0,0,0,45,26.09c-2.16.63-4.29,1.34-6.39,2.15-3.33,1.29-6.52,2.91-9.92,4-1.53.5-3.07,1-4.61,1.46a5.14,5.14,0,0,0-1.39.34c-2,.42-4,1-6.1,1.31a15.56,15.56,0,0,1-2.34-2.32c.34-1.67,1-3.24,1.44-4.89a4.87,4.87,0,0,0,1.87-3.81c.4,0,.52-.26.71-.52l2.38-3.11c.49-.45,1.19-.64,1.55-1.26.69.16,1.38.34,2.08.47,2.52.47,4.11-.86,4.11-3.45a1,1,0,0,1,0-.23,1.78,1.78,0,0,0,.9-.21c1.52-.69,3.06-1.35,4.59-2,.82.35,1.65.69,2.46,1.05a2.28,2.28,0,0,1,1.24,2.44.74.74,0,0,1-.82.69,2.59,2.59,0,0,1-1.64-.72,3.59,3.59,0,0,1-.39-.39c-1.77-2.1-3.59-1-4.41.67A9.55,9.55,0,0,0,29.16,24,2.77,2.77,0,0,0,33,26.21a6,6,0,0,0,.74-.29,1.76,1.76,0,0,1,2.25.32c1.68,1.68,4.19,1.37,5.42-1.39a8.73,8.73,0,0,0,.42-4.61c-.19-1.71-.65-3.4-.19-5.13,0-.1.08-.19.11-.28a2.54,2.54,0,0,0,1.51.73C44.3,15.87,45.08,16.69,46.16,16.88ZM29.22,28.56a2.34,2.34,0,0,0-.29-1.21,7.67,7.67,0,0,0-6.56-3.49,3.36,3.36,0,0,0-3,2A3.26,3.26,0,0,0,20,29.36a10,10,0,0,0,3.3,2.43,3.82,3.82,0,0,0,3.22.17A3.84,3.84,0,0,0,29.22,28.56Z"/><path class="cls-4" d="M30.4,72c-1.19.6-2.51,1-3.3,2.18l-1.87.28c-.09-.33-.37-.5-.59-.73l-2.85-2.92c1.26-3.07.2-5.45-2.87-6.35a7.08,7.08,0,0,0-3,0c-.72-.42-1.07-1.2-1.67-1.74-.3-.28-.51-.35-.71.08a2.9,2.9,0,0,1-.77-1L14.16,60a3.4,3.4,0,0,0,3.23-.84A16.93,16.93,0,0,0,20.34,56c.35.32.67,0,.94-.1a25.93,25.93,0,0,1,2.7-1,4.28,4.28,0,0,0,5.69,1.9,4.56,4.56,0,0,0,2.72-4.91l6.72-2.07c2.65-.81,5.3-1.6,7.94-2.39.34,2,.06,2.65-1.63,3.64A4.16,4.16,0,0,0,43.26,54c-.09.46-.12.94-.17,1.41l-3,.85a23.38,23.38,0,0,0-1.35-2.1,3.28,3.28,0,0,0-3-1c-1.09.18-1.63,1-2,2a4.54,4.54,0,0,0,0,2.87,1.51,1.51,0,0,1-.87.5l-3.43,1.18a4.94,4.94,0,0,0-4.88,1.1,4,4,0,0,0-1.5,4A3.9,3.9,0,0,0,25.91,68a8.15,8.15,0,0,0,2.91.15c.73,0,1.05.3,1.09.95A21.8,21.8,0,0,0,30.4,72Z"/><path class="cls-5" d="M76.42,63.44a6.05,6.05,0,0,1,2-.81c2.78-1,5.58-1.92,8.37-2.86a1.33,1.33,0,0,0,.78-.5,4.3,4.3,0,0,0,2.65.89,5.22,5.22,0,0,1,3,1,6.6,6.6,0,0,0,2,1,2.42,2.42,0,0,0,2.2-.25,2.19,2.19,0,0,0,0-3.5,17.12,17.12,0,0,0-1.91-1.09,1.67,1.67,0,0,1,2.07-.76,5,5,0,0,0,1.09.15c1.65.06,2.38-.65,2.39-2.31a22.86,22.86,0,0,0,4.22-1.59c.82.51,1.42,1.33,2.39,1.64.27.09.15.35,0,.54a27.37,27.37,0,0,1-1.94,3.36,1.77,1.77,0,0,1-1.18.74,3.73,3.73,0,0,0-3.45,3.44c-1.72.65-3.35,1.5-5,2.25a11.52,11.52,0,0,1-1.74-1.21,6.5,6.5,0,0,0-6.29-.35c-2.29,1-2.45,3.08-.48,4.54.12.09.28.15.27.35a47,47,0,0,1-4.57,1.64c.16-.21.33-.41.48-.62,1.28-1.73.85-4-.92-4.72a4.81,4.81,0,0,0-2-.19,2.83,2.83,0,0,1-1.42,0A7.47,7.47,0,0,0,76.42,63.44Z"/><path class="cls-6" d="M24.05,33.72c1.54-.48,3.08-1,4.61-1.46,3.4-1.11,6.59-2.73,9.92-4,2.1-.81,4.23-1.52,6.39-2.15a22.75,22.75,0,0,1,2.6,4.24c.62,1.37,1.26,2.72,2,4a3.13,3.13,0,0,0-1.13.28,18.26,18.26,0,0,1-2.68.88,18.37,18.37,0,0,0-1.14-1.9,2.86,2.86,0,0,0-2.69-1.19,3,3,0,0,0-2.28,2.08,7.12,7.12,0,0,0-.24,3.21,16.59,16.59,0,0,1-2.59.82c.16-.24.31-.49.48-.72a4.41,4.41,0,0,0-1.8-6.73A2.6,2.6,0,0,0,31.7,33c-.37,2.56-.95,5.1-1.08,7.69a3.69,3.69,0,0,0-1.23.25L25.9,42A8.58,8.58,0,0,0,27,37.43,3.87,3.87,0,0,0,24.05,33.72Z"/><path class="cls-7" d="M83.27,69.78a47,47,0,0,0,4.57-1.64,8,8,0,0,1,2,.45c.82.24,1,.83.8,1.78a7.23,7.23,0,0,1-3.8,4.36,11.86,11.86,0,0,1-6.15,1.53A5,5,0,0,0,77,77.63a4,4,0,0,0-.9,4.92c.08.16.14.34.21.51a1.73,1.73,0,0,0-.82.32l-.45.16c-1.77.68-3.46,1.56-5.3,2.08a10.53,10.53,0,0,0,1.77-3.77,24.2,24.2,0,0,0,.36-7.78l3.54-1.35a4.2,4.2,0,0,1,.06.62,1.76,1.76,0,0,0,1,1.88,2,2,0,0,0,2.24-.77,12,12,0,0,0,1.08-1.65A4.22,4.22,0,0,1,81.59,71,10.36,10.36,0,0,0,83.27,69.78Z"/><path class="cls-8" d="M90.85,51.57c-1,.31-1.95.63-2.93.93-.27.08-.52.26-.83.19a7.87,7.87,0,0,1,2.46-2.06c1.79-1,2.3-3,.88-4.36a2.54,2.54,0,0,1-.53-3.61,30.6,30.6,0,0,0,4-1c1.26,1.31,2.39,1.16,3.25-.45l.34-.62c.72.09,1.35-.3,2-.32-.06.45-.36.81-.39,1.28a2.33,2.33,0,0,0,1.26,2.3c1.34.76,1.75.67.09,2a3.85,3.85,0,0,0-1.66,2.77A19.48,19.48,0,0,0,95.21,50,4.84,4.84,0,0,0,90.85,51.57Z"/><path class="cls-9" d="M22.17,19.46c-.36.62-1.06.81-1.55,1.26a35.25,35.25,0,0,0-3.5,1.83,4.4,4.4,0,0,0-3.48-2.31,4.85,4.85,0,0,0-4.81,3.82c-.28,1.16-.39,2.36-1.46,3.19a2.86,2.86,0,0,0-.67,1.41c-.67.2-1.21.89-2,.49a24.57,24.57,0,0,1,1.58-5.71,34.91,34.91,0,0,1,3.35-6.73.94.94,0,0,1,.89-.5,38.39,38.39,0,0,1,3.87-.13,8.31,8.31,0,0,1,3.73,1.21A22.1,22.1,0,0,0,22.17,19.46Z"/><path class="cls-10" d="M87.13,8.76a11.53,11.53,0,0,0,2.42,2.89,5.43,5.43,0,0,0,8.21-1.79c.24-.45.48-.59.92-.36.85.44,1.45,1.22,2.25,1.73.18.12.12.31,0,.49a2.89,2.89,0,0,0-.46,2,7.76,7.76,0,0,1-1.87,1c-1.55-.53-2.95,0-4.33.63a29.71,29.71,0,0,0-3.14.48c0-.15,0-.31-.07-.46a3.54,3.54,0,0,0-2.41-3,3,3,0,0,0-3.38,1c-.46.49-.44,1.16-.77,1.7-.13-.43-.47-.43-.83-.42a17.28,17.28,0,0,0-4.22.79,8.74,8.74,0,0,0,.15-5.4C82.11,9.59,84.6,9.09,87.13,8.76Z"/><path class="cls-11" d="M25.9,42l3.49-1a3.69,3.69,0,0,1,1.23-.25,14.71,14.71,0,0,0,1.07,4.33l-7.9,2.52a31.14,31.14,0,0,0-3.89,1.3,8.59,8.59,0,0,0-1.28-.35,3.09,3.09,0,0,0-3.22,1.76c-.82,0-1.48.59-2.29.66a5.43,5.43,0,0,0,.86-5.1,5,5,0,0,0,1.4-.47c.51.05.94-.25,1.42-.32a5.27,5.27,0,0,0,4.79.4A8.59,8.59,0,0,0,25.9,42Z"/><path class="cls-10" d="M75.48,83.38a1.73,1.73,0,0,1,.82-.32,5.48,5.48,0,0,0,3.83,2.12c.3,0,.3.21.13.37-.61.54-1.23,1.08-1.86,1.6-.22.18-.44.06-.65-.1-.39-.32-.79-.62-1.2-.91a2.81,2.81,0,0,0-4.41,1.34,35.11,35.11,0,0,0-1.45,5,1.94,1.94,0,0,1-.83,1.28A102.5,102.5,0,0,1,61,99.61c0-.77-.76-1-1-1.69.14-.27.44-.25.67-.36,2.87-1.47,4.77-3.57,4.66-7a1.31,1.31,0,0,0,.89-.21,76.85,76.85,0,0,0,7.41-5.25C74.31,84.57,75.15,84.23,75.48,83.38Z"/><path class="cls-2" d="M36.82,85.74l3.7-1a4.4,4.4,0,0,0,2.42-.87l.38,0,2.54-.67A15.26,15.26,0,0,0,48.71,86a16.32,16.32,0,0,0-.52,2.5,1.35,1.35,0,0,0,0,1.66l.24,1.41a1.38,1.38,0,0,1-1.06-.23A1,1,0,0,0,46.25,91c-1.1.26-2.21.56-3.22-.28-.07,0-.21,0-.31,0a49.69,49.69,0,0,1-4.9-3.88c-.39-.32-.75-.67-1.12-1Z"/><path class="cls-8" d="M101,33.6a9.47,9.47,0,0,0,3.15,1.15,8.12,8.12,0,0,0,7.11-2.5c.07-.07.16-.13.36-.3a30.59,30.59,0,0,1,.2,6.74l-1.16.65c-.14.08-.35.22-.24.34.41.41.47,1.16,1.18,1.27a18.62,18.62,0,0,1-.47,4.07c-.15.85-.37,1.7-.56,2.55,0,.23-.06.5-.4.51-.49-.62-.84-1.37-1.68-1.63A10.22,10.22,0,0,0,109.88,45a4.29,4.29,0,0,0-1.74-6.43,11.24,11.24,0,0,1-2-1.2,2.18,2.18,0,0,0-2.33-.1,22.91,22.91,0,0,0-3.58,2.17,33.58,33.58,0,0,0-.15-5.4C100.4,33.86,100.82,33.94,101,33.6Z"/><path class="cls-11" d="M45.75,35.52a18.26,18.26,0,0,0,2.68-.88,3.13,3.13,0,0,1,1.13-.28c.24.25.47.5.71.74a4.29,4.29,0,0,0,6.92-1.23,9.48,9.48,0,0,0,.64-2.33,8.65,8.65,0,0,1,1.8-.53A21.75,21.75,0,0,0,62,33.43,8.18,8.18,0,0,1,63.55,35a14.92,14.92,0,0,0-2.44.66q-7.41,2.13-14.77,4.46A14.62,14.62,0,0,0,45.75,35.52Z"/><path class="cls-11" d="M92.48,22.12c1.6,1,1.61,1,.83,2.71a2.61,2.61,0,0,0,.26,2.82l-1.94.53c-.14-.34-.26-.69-.41-1a5.73,5.73,0,0,0-.89-1.4c-1.33-1.46-3.14-.83-4.26.62-.9,1.17-1.61,2.48-2.4,3.72-1.16.17-2.28.52-3.41.8.06-1,.09-2.1.19-3.14a7.21,7.21,0,0,1,.64-2.9c1.78-.46,3.55-.93,5.34-1.35A54.11,54.11,0,0,1,92.48,22.12Z"/><path class="cls-12" d="M15.37,45.37a5,5,0,0,1-1.4.47A8.46,8.46,0,0,0,12.05,43c-2.1-2-4.54-1.58-5.92.93-.21.39-.4.8-.58,1.21-.08.18-.17.33-.39.31s-.31-.16-.34-.36a34.91,34.91,0,0,1-.72-6.36,32.07,32.07,0,0,1,5.48-1.92A3.21,3.21,0,0,0,11,39.25a10.47,10.47,0,0,0,2.87,1.25C14.34,42.14,14.78,43.77,15.37,45.37Z"/><path class="cls-6" d="M92.48,22.12a54.11,54.11,0,0,0-6,1.39c-1.79.42-3.56.89-5.34,1.35.41-2.59-1-4.14-3-5.31-.8-.44-1.72-.52-2.54-.88.26,0,.53-.07.78-.12l7.61-1.38a3.84,3.84,0,0,1-.13,1.26,13.3,13.3,0,0,0-.37,3.15A1.94,1.94,0,0,0,86,23.4a2.63,2.63,0,0,0,1.29-.75,13.56,13.56,0,0,0,3.88-6.88,29.71,29.71,0,0,1,3.14-.48c-.52.56-1.06,1.11-1.56,1.68C91.1,18.81,91,20.15,92.48,22.12Z"/><path class="cls-13" d="M91.63,28.18l1.94-.53a5.68,5.68,0,0,0,3,1,1.76,1.76,0,0,1,1.36.84,19.4,19.4,0,0,0,3,4.11c-.2.34-.62.26-.89.47l-1.45.34-.29-.24c-1.1-1-1.93-1-3,0-.48.49-1,1-1.45,1.43-.73,0-1.39.34-2.11.35.07-.31.13-.62.2-.92A14.88,14.88,0,0,0,91.63,28.18Z"/><path class="cls-14" d="M46.16,16.88c-1.08-.19-1.86-1-2.9-1.32a2.54,2.54,0,0,1-1.51-.73A13.46,13.46,0,0,0,42,11.48a12.25,12.25,0,0,0,3.13-.56c.59-.22,1.28-.31,1.6-1a3.89,3.89,0,0,0,1.47-.21.45.45,0,0,1,.52.09,42.14,42.14,0,0,1,3.63,3.31s0,.1,0,.15-.11.06-.14.05c-1.19-.8-2.17-.26-3.18.43A10.85,10.85,0,0,0,46.16,16.88Z"/><path class="cls-9" d="M33.89,14c-1.53.67-3.07,1.33-4.59,2a1.78,1.78,0,0,1-.9.21,9.31,9.31,0,0,1,1.37-7.44,2.34,2.34,0,0,0,0-2.89c-.27-.39-.24-.54.26-.69.81-.25,1.58-.62,2.37-.91.21-.08.46-.29.65-.08s0,.39-.09.59A15.25,15.25,0,0,0,32.4,11,5.34,5.34,0,0,0,33.89,14Z"/><path class="cls-14" d="M9.58,36.77A32.07,32.07,0,0,0,4.1,38.69a31.2,31.2,0,0,1,.58-9.54c.81.4,1.35-.29,2-.49a6.28,6.28,0,0,0,2.86,6c.58.44,1.13.77.32,1.49A1.73,1.73,0,0,0,9.58,36.77Z"/><path class="cls-11" d="M105.76,18.74c.8.09,1.11.5,1.06,1.33-.12,1.71.05,3.43-.1,5.14l-3.06.75-3.11-2c-.21-.13-.43-.31-.21-.56a7,7,0,0,0,1.26-3.5c.32-.11.64-.2,1-.32C103.6,19.21,104.77,19.31,105.76,18.74Z"/><path class="cls-2" d="M55.85,22.77A3.93,3.93,0,0,0,57,20.24c0-.39.13-.59.58-.49a2,2,0,0,0,2.33-1.2,28.1,28.1,0,0,1,4.17-5.46,4.46,4.46,0,0,1,.42-.34,15.61,15.61,0,0,0,1.81-.17,25.22,25.22,0,0,1,1,3.82,9.42,9.42,0,0,0-2.5,1.89,5.05,5.05,0,0,1-1.36-.4,2,2,0,0,0-3,1.52c-.24.86-.55,1.7-.82,2.55a5.42,5.42,0,0,1-.7.14C57.92,22.21,57,22.81,55.85,22.77Z"/><path class="cls-6" d="M55.85,22.77c1.1,0,2.07-.56,3.13-.67a5.42,5.42,0,0,0,.7-.14,6,6,0,0,1-.49,2.29c-.64,2.32-.91,4.58.44,6.76a8.65,8.65,0,0,0-1.8.53,6.53,6.53,0,0,0-1-3.19,9,9,0,0,0-3.19-2.53,13.77,13.77,0,0,1-2.52-1.46,18.74,18.74,0,0,1,2.84-.9A4.32,4.32,0,0,0,55.85,22.77Z"/><path class="cls-9" d="M78.55,8.88a2.51,2.51,0,0,0-2.87,1c-.63.79-1,.73-1.39-.18a6.45,6.45,0,0,1-.41-3c0-.34.28-.43.52-.53a23.08,23.08,0,0,1,3-1,.8.8,0,0,1,.67.13c.43.25.88.48,1.33.71a2,2,0,0,0,2,0c.53-.3,1.07-.58,1.58-.92a3.44,3.44,0,0,1,2.6-.39.52.52,0,0,1,.51.5c.08.58.2,1.14.31,1.71a16,16,0,0,1-2.76-.1,2.69,2.69,0,0,0-1.92.21C80.66,7.6,79.6,8.23,78.55,8.88Z"/><path class="cls-13" d="M13.11,50.94c.81-.07,1.47-.62,2.29-.66a22.67,22.67,0,0,0-2.25,6.43c-.21,1.22-.23,2.44,1,3.25L12.8,61.79a33.78,33.78,0,0,1-2-2.76,1.17,1.17,0,0,1,0-1.12,6.92,6.92,0,0,0-.17-5.48c-.23-.48-.28-.92.54-.8a2.49,2.49,0,0,0,1.51-.4c.06,0,.09,0,.1-.06Z"/><path class="cls-2" d="M83.9,17.17l-7.61,1.38c-.25.05-.52.08-.78.11a2,2,0,0,0-2.3.58,8,8,0,0,0-1.18.13c-1.23.26-2.48.47-3.73.71,0-.22.19-.27.35-.36a21.51,21.51,0,0,0,2.24-1.15,8.62,8.62,0,0,0,1.66-.77c.23.07.4-.07.6-.14a19.08,19.08,0,0,1,3.11-1.08c1.4.84,2.06.61,3.19-1.13a17.28,17.28,0,0,1,4.22-.79c.36,0,.7,0,.83.41A20,20,0,0,0,83.9,17.17Z"/><path class="cls-9" d="M46.69,9.93c-.32.68-1,.77-1.6,1a12.25,12.25,0,0,1-3.13.56c-.69-3-3-4.84-4.91-7a16.55,16.55,0,0,1,5.09,1.44,6.66,6.66,0,0,0,.72.33,1.69,1.69,0,0,1,1.27,1.44C44.36,9.08,45.48,9.57,46.69,9.93Z"/><path class="cls-9" d="M25.33,9.36a6.56,6.56,0,0,1-1.4,2.8c-.13.18-.29.24-.47.07a20.45,20.45,0,0,0-2.89-1.79c-1.09-.7-1.14-1.11-.41-2.18A4,4,0,0,1,22,6.68C23.74,6,25.34,7,25.33,9.36Z"/><path class="cls-14" d="M42.72,90.74c.1,0,.24,0,.31,0,1,.84,2.12.54,3.22.28a1,1,0,0,1,1.13.26,1.38,1.38,0,0,0,1.06.23,11,11,0,0,0,5.71,6.07c.11.42-.26.54-.47.76A65.3,65.3,0,0,1,47.07,94,42.32,42.32,0,0,1,42.72,90.74Z"/><path class="cls-12" d="M78.55,8.88c1-.65,2.11-1.28,3.16-1.94a2.69,2.69,0,0,1,1.92-.21,16,16,0,0,0,2.76.1,11.29,11.29,0,0,1,.74,1.93c-2.53.33-5,.83-7.53,1.29Z"/><path class="cls-3" d="M95.21,50a19.48,19.48,0,0,1,3.62-1.28,3.48,3.48,0,0,0,2.69,2.93c.82.18,1.65.31,2.48.49a1.71,1.71,0,0,1,1.23.75A22.86,22.86,0,0,1,101,54.43a4,4,0,0,0-.67-1.31A9.22,9.22,0,0,0,95.21,50Z"/><path class="cls-6" d="M105.76,18.74c-1,.57-2.16.47-3.2.85-.32.12-.64.21-1,.32-.08-.59-.12-1.2-.25-1.78a5.42,5.42,0,0,0-2.75-3.47,7.76,7.76,0,0,0,1.87-1,11,11,0,0,0,5.07,4.85A1.1,1.1,0,0,1,105.76,18.74Z"/><path class="cls-2" d="M53.68,98.35c.21-.22.58-.34.47-.76a10.62,10.62,0,0,0,4,.61,9.94,9.94,0,0,1,1.87-.28c.19.64,1,.92,1,1.69-.85.52-1.69,1.4-2.61,1.34a7.09,7.09,0,0,1-2.64-1.31A11.37,11.37,0,0,1,53.68,98.35Z"/><path class="cls-7" d="M96.08,64.81c1.67-.75,3.3-1.6,5-2.25.09.79-.56,1.19-.94,1.72a4.21,4.21,0,0,0-1,2.5c0,.91-1,1.2-1.36,2.13A9.22,9.22,0,0,0,97,66.16C96.71,65.69,96.22,65.37,96.08,64.81Z"/><path class="cls-4" d="M98.68,34.41l1.45-.34a33.58,33.58,0,0,1,.15,5.4l-.75.81c-.7,0-1.33.41-2,.32a12.93,12.93,0,0,1,1.1-2.6A3.46,3.46,0,0,0,98.68,34.41Z"/><path class="cls-10" d="M70.89,18.57a21.51,21.51,0,0,1-2.24,1.15c-.16.09-.34.14-.35.36,0,.05,0,.11-.07.17l-3.41-2a9.42,9.42,0,0,1,2.5-1.89A3.35,3.35,0,0,0,70.89,18.57Z"/><path class="cls-13" d="M103.66,26l3.06-.75a5.38,5.38,0,0,1-.19,2.25c-.1.51-.37.59-.77.26Z"/><path class="cls-8" d="M21.79,70.77l2.85,2.92c.22.23.5.4.59.73-.51.48-.93.4-1.39-.12a23.9,23.9,0,0,0-2.07-2.08C21.16,71.68,21.17,71.24,21.79,70.77Z"/><path class="cls-10" d="M76.26,16.58a19.08,19.08,0,0,0-3.11,1.08c-.2.07-.37.21-.6.14.7-.91,1.4-1.82,2.11-2.72.34-.43.63-.53.87.12A15.18,15.18,0,0,0,76.26,16.58Z"/><path class="cls-2" d="M53.94,23.46a18.74,18.74,0,0,0-2.84.9c-.39-.19-.81-.43-.67-.9s.65-.37,1-.33C52.29,23.22,53.11,23.35,53.94,23.46Z"/><path class="cls-5" d="M108.51,46.45c.84.26,1.19,1,1.68,1.63-.11.19.35.23.13.44s-.3-.05-.4-.12c-.53-.34-1-.72-1.54-1.09-.2-.14-.59-.17-.52-.49S108.25,46.51,108.51,46.45Z"/><path class="cls-8" d="M13.57,62.76c.2-.43.41-.36.71-.08.6.54,1,1.32,1.67,1.74a1,1,0,0,1-1.45-.33C14.21,63.63,13.74,63.3,13.57,62.76Z"/><path class="cls-14" d="M66.33,12.58a15.61,15.61,0,0,1-1.81.17l1.36-1.48A2.05,2.05,0,0,1,66.33,12.58Z"/><path class="cls-5" d="M34.25,82.22c-.46,1,.5,1.42.88,2.08.13.22.41.34.44.64a12.49,12.49,0,0,1-1.84-1.47c-.2-.15-.14-.3,0-.48S34.07,82.48,34.25,82.22Z"/><path class="cls-5" d="M36.82,85.74l-.12.12a2.1,2.1,0,0,1-1.11-.9C36.17,84.94,36.37,85.54,36.82,85.74Z"/><path class="cls-5" d="M34.27,79.72c.15.08.22.19,0,.32A.23.23,0,0,1,34.27,79.72Z"/><path class="cls-11" d="M12.79,51.17c0,.06,0,.08-.1.06S12.72,51.13,12.79,51.17Z"/><path class="cls-1" d="M73.78,57.36a18.24,18.24,0,0,1-.55,1.82A6,6,0,0,1,68,63.07a7.78,7.78,0,0,1-5.8-1.67,7,7,0,0,1-1.44-5.89,4.63,4.63,0,0,0-2-4.68c-1.63-1.59-3-3.29-2.78-5.79a8.79,8.79,0,0,1,1.87-4.14c.86-1,1.82-1.92,3.29-1.68s2,1.58,2.4,2.86a3.3,3.3,0,0,0,.32,1.11c.06.2.1.41.17.6.39,1.05.57,1.12,1.54.63.26-.13.52-.26.79-.37a3.64,3.64,0,0,1,5.22,2.33c.11.35.16.71.24,1.07a8.34,8.34,0,0,0,.31,2.49C72.8,52.39,73.88,54.75,73.78,57.36Z"/><path class="cls-1" d="M43.09,55.36c0-.47.08-1,.17-1.41a4.16,4.16,0,0,1,2.16-2.89c1.69-1,2-1.67,1.63-3.64,0-.29.08-.58.1-.87A4.32,4.32,0,0,1,50,42.63c1.22-.5,2-.08,2.21,1.24a2.93,2.93,0,0,0,.94,1.85c.16.21.3.43.47.62a8.69,8.69,0,0,1,2.67,5.21,9.86,9.86,0,0,1-.43,1.92,2.15,2.15,0,0,1-3.72.71c-.41-.4-.71-.93-1.27-1.16-.88-.66-1.4-.52-1.74.45a1.47,1.47,0,0,0-.34,1.18,9.24,9.24,0,0,0,2.43,4.46,1,1,0,0,0,1.5.09c.73-.57,1.44-1.16,2.2-1.69a3,3,0,0,1,3.75-.11c.94.79,1.06,2,.4,3.57a5.09,5.09,0,0,0-.67,1.76,15.79,15.79,0,0,0-1,3.24,8.75,8.75,0,0,1-1.86,3.54c-1.66,1.71-3.55,1.71-5.14-.06-.63-.71-1.14-1.52-1.72-2.27-.22-.3-.47-.57-.71-.85a5.75,5.75,0,0,0-.93-1.54C45.19,61.88,43.43,58.92,43.09,55.36Z"/><path class="cls-1" d="M71.86,74.07a24.2,24.2,0,0,1-.36,7.78,10.53,10.53,0,0,1-1.77,3.77,4.48,4.48,0,0,1-2.36,1,.15.15,0,0,0-.22,0h-.24c0-.06-.1-.14-.17-.16a3.27,3.27,0,0,1-2.23-3.36c0-.74,0-1.48,0-2.22,0-.55-.23-.79-.76-.74A7.12,7.12,0,0,1,59,79.05a11.09,11.09,0,0,1-1.78-2.85A8.63,8.63,0,0,1,57.36,70a6.26,6.26,0,0,1,3.78-3,7,7,0,0,1,3.89.26,14.48,14.48,0,0,0,3.25,1.61,5.32,5.32,0,0,1,3,3.09C71.55,72.64,71.63,73.37,71.86,74.07Z"/><path class="cls-1" d="M89.9,42.66a2.54,2.54,0,0,0,.53,3.61c1.42,1.37.91,3.34-.88,4.36a7.87,7.87,0,0,0-2.46,2.06h0a.24.24,0,0,0-.31.18,10.22,10.22,0,0,1-5.89,2.05c-.07,0-.13-.11-.21-.11a8,8,0,0,1-5.38-3.27,12,12,0,0,1-1.93-4.29,4.23,4.23,0,0,0-.1-1.33,11.86,11.86,0,0,1,.81-5.17l.54-.78a5.51,5.51,0,0,1,2.59-2.13,5.15,5.15,0,0,1,4.69.64,5.08,5.08,0,0,1,1.57,5.93c-1.52,2.41-3.6,2.61-6.09,1.4A4.84,4.84,0,0,0,80,49.23c2,1.12,4.1.92,5.4-.47a1.84,1.84,0,0,0,.53-1.89C85.56,46,85.27,45,85,44.1a13.13,13.13,0,0,1,.16-1.88c.43-2,2.53-2.95,4-1.84A2.47,2.47,0,0,1,89.9,42.66Z"/><path class="cls-1" d="M30.4,72a21.8,21.8,0,0,1-.49-2.89c0-.65-.36-1-1.09-.95A8.15,8.15,0,0,1,25.91,68a3.9,3.9,0,0,1-2.83-3.13,4,4,0,0,1,1.5-4,4.94,4.94,0,0,1,4.88-1.1c.15.22.4.23.63.3a7.45,7.45,0,0,1,5.52,6.46,18,18,0,0,1,0,4c-.26.51-.49,1-.79,1.54A2.49,2.49,0,0,1,30.4,72Z"/><path class="cls-1" d="M95.21,50a9.22,9.22,0,0,1,5.13,3.17,4,4,0,0,1,.67,1.31c0,1.66-.74,2.37-2.39,2.31a5,5,0,0,1-1.09-.15,1.67,1.67,0,0,0-2.07.76,17.12,17.12,0,0,1,1.91,1.09,2.19,2.19,0,0,1,0,3.5,2.42,2.42,0,0,1-2.2.25,6.6,6.6,0,0,1-2-1,5.22,5.22,0,0,0-3-1,4.3,4.3,0,0,1-2.65-.89,4.35,4.35,0,0,1-.91-1.64,1.28,1.28,0,0,0,0-.82c.57-1.81,1.42-2.3,3.39-1.94.31.05.57.07.4-.36a3.43,3.43,0,0,1,.41-2.94A4.84,4.84,0,0,1,95.21,50Z"/><path class="cls-1" d="M83.27,69.78A10.36,10.36,0,0,1,81.59,71a4.22,4.22,0,0,0-1.78,1.84,12,12,0,0,1-1.08,1.65,2,2,0,0,1-2.24.77,1.76,1.76,0,0,1-1-1.88,4.2,4.2,0,0,0-.06-.62,2.57,2.57,0,0,0-.71-2.25A18,18,0,0,1,73.5,68.9a3.43,3.43,0,0,1,.71-4.5c.13-.12.25-.26.38-.38a8,8,0,0,1,1.83-.58,7.47,7.47,0,0,1,3,.77,2.83,2.83,0,0,0,1.42,0,4.81,4.81,0,0,1,2,.19c1.77.77,2.2,3,.92,4.72C83.6,69.37,83.43,69.57,83.27,69.78Z"/><path class="cls-5" d="M57.36,70a8.63,8.63,0,0,0-.19,6.17A11.09,11.09,0,0,0,59,79.05l-1.78.59c-.45-.52-.86-1.07-1.35-1.54-1.56-1.47-3.46-1.69-4.89-.59s-2.77,2.55-1.86,4.72c-1.07.23-2.08.7-3.17.85-.26-.23-.52-.45-.76-.68s-.58-.71-1.12-.59a7.44,7.44,0,0,0-.8-3.34,3.08,3.08,0,0,1-.29-1.84,5.2,5.2,0,0,0-.13-1.8,8,8,0,0,0,1.92-.52,14.82,14.82,0,0,0,0,1.49A2.1,2.1,0,0,0,46,77.53a2.15,2.15,0,0,0,2.22-.39,3.1,3.1,0,0,0,.94-1.44,6.48,6.48,0,0,0,0-3c1.9-.42,3.66-1.27,5.53-1.82C55.63,70.65,56.49,70.33,57.36,70Z"/><path class="cls-1" d="M33.76,58a4.54,4.54,0,0,1,0-2.87c.38-1,.92-1.85,2-2a3.28,3.28,0,0,1,3,1,23.38,23.38,0,0,1,1.35,2.1c.07.2.13.4.2.6,1.26,3.87,2.17,7.76.76,11.8-.71.77-1.48,1.37-2.62,1a2.71,2.71,0,0,1-1-2.51A9.47,9.47,0,0,0,36,61.5,31.18,31.18,0,0,1,33.76,58Z"/><path class="cls-1" d="M42.8,74.83a5.2,5.2,0,0,1,.13,1.8,3.08,3.08,0,0,0,.29,1.84,7.44,7.44,0,0,1,.8,3.34l-.11.68a.4.4,0,0,0-.2.43l-.56.78-.21.17a4.4,4.4,0,0,1-2.42.87c-3.36,0-5.5-3-4.9-6.31A15.36,15.36,0,0,1,37,74.24a2.93,2.93,0,0,1,5.17-.43A10.38,10.38,0,0,1,42.8,74.83Z"/><path class="cls-8" d="M50.91,53c.56.23.86.76,1.27,1.16a2.15,2.15,0,0,0,3.72-.71,9.86,9.86,0,0,0,.43-1.92,8.23,8.23,0,0,0,2.42-.72,4.63,4.63,0,0,1,2,4.68,7,7,0,0,0,1.44,5.89,35.53,35.53,0,0,1-3.75,1.33A5.09,5.09,0,0,1,59.11,61c.66-1.57.54-2.78-.4-3.57a3,3,0,0,0-3.75.11c-.76.53-1.47,1.12-2.2,1.69a1,1,0,0,1-1.5-.09,9.24,9.24,0,0,1-2.43-4.46,1.47,1.47,0,0,1,.34-1.18A4.4,4.4,0,0,0,50.91,53Z"/><path class="cls-8" d="M41.08,68.61c1.41-4,.5-7.93-.76-11.8-.07-.2-.13-.4-.2-.6l3-.85c.34,3.56,2.1,6.52,4,9.43A5.75,5.75,0,0,1,48,66.33,70.18,70.18,0,0,1,41.08,68.61Z"/><path class="cls-5" d="M74.59,64c-.13.12-.25.26-.38.38a3.43,3.43,0,0,0-.71,4.5,18,18,0,0,0,1.19,1.57,2.57,2.57,0,0,1,.71,2.25l-3.54,1.35c-.23-.7-.31-1.43-.59-2.13a5.32,5.32,0,0,0-3-3.09A14.48,14.48,0,0,1,65,67.24c2-.54,3.89-1.33,5.83-2A35.43,35.43,0,0,1,74.59,64Z"/><path class="cls-1" d="M49.23,72.73a6.48,6.48,0,0,1,0,3,3.1,3.1,0,0,1-.94,1.44,2.15,2.15,0,0,1-2.22.39,2.1,2.1,0,0,1-1.33-1.73,14.82,14.82,0,0,1,0-1.49l.07-.31c.18-.36.22-.69-.17-1a12,12,0,0,1-1.11-.75,2,2,0,0,1-.63-2.41,2.26,2.26,0,0,1,2.38-1.18A4.46,4.46,0,0,1,48.34,71C48.68,71.53,48.93,72.15,49.23,72.73Z"/><path class="cls-8" d="M73.38,47.25a12,12,0,0,0,1.93,4.29,8,8,0,0,0,5.38,3.27c.08,0,.14.07.21.11l-7.12,2.44c.1-2.61-1-5-1.66-7.42a8.34,8.34,0,0,1-.31-2.49Z"/><path class="cls-8" d="M33.76,58A31.18,31.18,0,0,0,36,61.5a9.47,9.47,0,0,1,1.47,5.58,2.71,2.71,0,0,0,1,2.51l-2.86.83a18,18,0,0,0,0-4A7.45,7.45,0,0,0,30.09,60c-.23-.07-.48-.08-.63-.3l3.43-1.18A1.51,1.51,0,0,0,33.76,58Z"/><path class="cls-5" d="M44.62,73.05c.39.26.35.59.17,1C44.48,73.73,44.67,73.37,44.62,73.05Z"/><path class="cls-5" d="M86.65,56.81a1.28,1.28,0,0,1,0,.82A.49.49,0,0,1,86.65,56.81Z"/><path class="cls-8" d="M86.79,52.87a.24.24,0,0,1,.31-.18C87.05,52.85,86.93,52.87,86.79,52.87Z"/><path class="cls-1" d="M9.58,36.77a1.73,1.73,0,0,1,.3-.64c.81-.72.26-1.05-.32-1.49a6.28,6.28,0,0,1-2.86-6,2.86,2.86,0,0,1,.67-1.41c1.07-.83,1.18-2,1.46-3.19a4.85,4.85,0,0,1,4.81-3.82,4.4,4.4,0,0,1,3.48,2.31,9.21,9.21,0,0,1,.41,1.8,4.87,4.87,0,0,1-1.87,3.81c-.75.33-1.49.69-2.26,1a1,1,0,0,0-.71,1.23,4.24,4.24,0,0,0,1.53,2.69,15.56,15.56,0,0,0,2.34,2.32c.73,1,1.46,1.91,2.21,2.86.37.48.78.44,1.21,0a4.3,4.3,0,0,0,1-1.66,6.29,6.29,0,0,1,1.65-2.55,5.14,5.14,0,0,1,1.39-.34A3.87,3.87,0,0,1,27,37.43,8.58,8.58,0,0,1,25.9,42a8.59,8.59,0,0,1-4.32,3.45,5.27,5.27,0,0,1-4.79-.4,2.93,2.93,0,0,1-.46-3.7c.21-.39,0-.46-.32-.51l-2.1-.34A10.47,10.47,0,0,1,11,39.25,3.21,3.21,0,0,1,9.58,36.77Z"/><path class="cls-1" d="M29.22,28.56A3.84,3.84,0,0,1,26.55,32a3.82,3.82,0,0,1-3.22-.17A10,10,0,0,1,20,29.36a3.26,3.26,0,0,1-.66-3.48,3.36,3.36,0,0,1,3-2,7.67,7.67,0,0,1,6.56,3.49A2.34,2.34,0,0,1,29.22,28.56Z"/><path class="cls-6" d="M22.66,34.06A6.29,6.29,0,0,0,21,36.61a4.3,4.3,0,0,1-1,1.66c-.43.4-.84.44-1.21,0-.75-.95-1.48-1.91-2.21-2.86C18.63,35.08,20.63,34.48,22.66,34.06Z"/><path class="cls-14" d="M14.22,33.05a4.24,4.24,0,0,1-1.53-2.69,1,1,0,0,1,.71-1.23c.77-.28,1.51-.64,2.26-1C15.25,29.81,14.56,31.38,14.22,33.05Z"/><path class="cls-14" d="M17.53,24.35a9.21,9.21,0,0,0-.41-1.8,35.25,35.25,0,0,1,3.5-1.83l-2.38,3.11C18.05,24.09,17.93,24.39,17.53,24.35Z"/><path class="cls-13" d="M81.91,38.48a5.15,5.15,0,0,0-4.69-.64A5.51,5.51,0,0,0,74.63,40l-.54.78a21.91,21.91,0,0,0-2.77.67c-2.48.61-4.94,1.34-7.47,1.77a3.3,3.3,0,0,1-.32-1.11c-.41-1.28-.83-2.59-2.4-2.86s-2.43.72-3.29,1.68A8.79,8.79,0,0,0,56,45a20.49,20.49,0,0,1-2.78.68,2.93,2.93,0,0,1-.94-1.85c-.17-1.32-1-1.74-2.21-1.24a4.32,4.32,0,0,0-2.89,3.92c0,.29-.06.58-.1.87-2.64.79-5.29,1.58-7.94,2.39l-6.72,2.07c-.71-3-3.71-3.15-5.62-1.66-.48.38-1,.75-1.42,1.15A3.67,3.67,0,0,0,24,54.89a25.93,25.93,0,0,0-2.7,1c-.27.15-.59.42-.94.1a16.13,16.13,0,0,0,.82-1.53c1-2.32.57-4.17-1.26-5.63a31.14,31.14,0,0,1,3.89-1.3l7.9-2.52c.3.43.57.89.9,1.3a6.37,6.37,0,0,0,6,2.62,8.2,8.2,0,0,0,5-2.78,11.16,11.16,0,0,0,2.67-6.07q7.35-2.34,14.77-4.46A14.92,14.92,0,0,1,63.55,35c.78.82,1.52,1.68,2.34,2.46,1.8,1.7,3.68,1.24,4.56-1.07A13,13,0,0,0,71,33.13a17.52,17.52,0,0,1,2.57-.63.8.8,0,0,1,.13.19,3,3,0,0,0,2.59,2.36,3.2,3.2,0,0,0,3.14-1.87,11.9,11.9,0,0,0,.87-2.28c1.13-.28,2.25-.63,3.41-.8-.16.33-.31.67-.47,1a5.24,5.24,0,0,0-.68,3c.24,1.78,1.55,2.64,3,3.34A37.6,37.6,0,0,1,81.91,38.48Z"/><path class="cls-1" d="M19.9,48.87c1.83,1.46,2.26,3.31,1.26,5.63A16.13,16.13,0,0,1,20.34,56a16.93,16.93,0,0,1-2.95,3.09,3.4,3.4,0,0,1-3.23.84c-1.24-.81-1.22-2-1-3.25a22.67,22.67,0,0,1,2.25-6.43,3.09,3.09,0,0,1,3.22-1.76A8.59,8.59,0,0,1,19.9,48.87Z"/><path class="cls-1" d="M24,54.89a3.67,3.67,0,0,1,1.37-3.52c.46-.4.94-.77,1.42-1.15,1.91-1.49,4.91-1.32,5.62,1.66a4.56,4.56,0,0,1-2.72,4.91A4.28,4.28,0,0,1,24,54.89Z"/><path class="cls-1" d="M46.34,40.12a11.16,11.16,0,0,1-2.67,6.07,8.2,8.2,0,0,1-5,2.78,6.37,6.37,0,0,1-6-2.62c-.33-.41-.6-.87-.9-1.3a14.71,14.71,0,0,1-1.07-4.33c.13-2.59.71-5.13,1.08-7.69a2.6,2.6,0,0,1,3.79-1.94,4.41,4.41,0,0,1,1.8,6.73c-.17.23-.32.48-.48.72-.63.65-.62,1.08.06,1.61a2.22,2.22,0,0,0,1.77.48,1,1,0,0,0,.93-.83,3.18,3.18,0,0,0-.17-2.08,7.12,7.12,0,0,1,.24-3.21,3,3,0,0,1,2.28-2.08,2.86,2.86,0,0,1,2.69,1.19,18.37,18.37,0,0,1,1.14,1.9A14.62,14.62,0,0,1,46.34,40.12Z"/><path class="cls-11" d="M39.4,37.72a3.18,3.18,0,0,1,.17,2.08,1,1,0,0,1-.93.83,2.22,2.22,0,0,1-1.77-.48c-.68-.53-.69-1-.06-1.61A16.59,16.59,0,0,0,39.4,37.72Z"/><path class="cls-2" d="M66.91,86.68h.24l.22,0a4.48,4.48,0,0,0,2.36-1c1.84-.52,3.53-1.4,5.3-2.08l.45-.16c-.33.85-1.17,1.19-1.8,1.7a76.85,76.85,0,0,1-7.41,5.25,1.31,1.31,0,0,1-.89.21A3.76,3.76,0,0,0,63.9,88,15.8,15.8,0,0,0,66.91,86.68Z"/><path class="cls-4" d="M81.91,38.48a37.6,37.6,0,0,0,3.62-1.07c.43.13.85.27,1.28.39,2.41.65,3.84.46,5-1.81.72,0,1.38-.4,2.11-.35a4.71,4.71,0,0,0-.62,4.3c.17.58.36,1.15.54,1.73a30.6,30.6,0,0,1-4,1,2.47,2.47,0,0,0-.79-2.28c-1.42-1.11-3.52-.13-4,1.84A13.13,13.13,0,0,0,85,44.1a4.13,4.13,0,0,1-1.52.31A5.08,5.08,0,0,0,81.91,38.48Z"/><path class="cls-1" d="M93.89,41.67c-.18-.58-.37-1.15-.54-1.73a4.71,4.71,0,0,1,.62-4.3c.48-.47,1-.94,1.45-1.43,1-1.06,1.87-1.07,3,0l.29.24a3.46,3.46,0,0,1-.1,3.59,12.93,12.93,0,0,0-1.1,2.6l-.34.62C96.28,42.83,95.15,43,93.89,41.67Z"/><path class="cls-1" d="M83.9,17.17a20,20,0,0,1,.6-2.1c.33-.53.31-1.2.77-1.69a3,3,0,0,1,3.38-1,3.54,3.54,0,0,1,2.41,3c0,.15,0,.31.07.46a13.56,13.56,0,0,1-3.88,6.88A2.63,2.63,0,0,1,86,23.4a1.94,1.94,0,0,1-2.56-1.82,13.3,13.3,0,0,1,.37-3.15A3.84,3.84,0,0,0,83.9,17.17Z"/><path class="cls-6" d="M13.91,40.5l2.1.34c.28,0,.53.12.32.51a2.93,2.93,0,0,0,.46,3.7c-.48.07-.91.37-1.42.32C14.78,43.77,14.34,42.14,13.91,40.5Z"/><path class="cls-1" d="M63.9,88a3.76,3.76,0,0,1,1.48,2.54c.11,3.45-1.79,5.55-4.66,7-.23.11-.53.09-.67.36a9.94,9.94,0,0,0-1.87.28,10.62,10.62,0,0,1-4-.61,11,11,0,0,1-5.71-6.07l-.24-1.41a5.77,5.77,0,0,0,0-1.66,16.32,16.32,0,0,1,.52-2.5,5.61,5.61,0,0,0,.74-1.44,1.78,1.78,0,0,0-.38-2.28c-.91-2.17.3-3.52,1.86-4.72s3.33-.88,4.89.59c.49.47.9,1,1.35,1.54a3.19,3.19,0,0,0,.33.89,5.08,5.08,0,0,1,.36,2.86,4.37,4.37,0,0,1-2.68,3c-.57.26-1,.57-.85,1.31a2.71,2.71,0,0,0,2.44,2,3.8,3.8,0,0,0,2.21-1A4.87,4.87,0,0,1,63.9,88Z"/><path class="cls-7" d="M49.07,82.23a1.78,1.78,0,0,1,.38,2.28A5.61,5.61,0,0,1,48.71,86a15.26,15.26,0,0,1-2.85-2.77l0-.1C47,82.93,48,82.46,49.07,82.23Z"/><path class="cls-3" d="M45.9,83.08l0,.1-2.54.67-.17-.15.56-.78c.24,0,.28-.21.2-.43l.11-.68c.54-.12.8.29,1.12.59S45.64,82.85,45.9,83.08Z"/><path class="cls-7" d="M48.19,88.45a5.77,5.77,0,0,1,0,1.66A1.35,1.35,0,0,1,48.19,88.45Z"/><path class="cls-5" d="M43.15,83.7l.17.15-.38,0Z"/><path class="cls-1" d="M71,33.13a13,13,0,0,1-.51,3.26c-.88,2.31-2.76,2.77-4.56,1.07-.82-.78-1.56-1.64-2.34-2.46A8.18,8.18,0,0,0,62,33.43,21.75,21.75,0,0,1,59.63,31c-1.35-2.18-1.08-4.44-.44-6.76A6,6,0,0,0,59.68,22c.27-.85.58-1.69.82-2.55a2,2,0,0,1,3-1.52,5.05,5.05,0,0,0,1.36.4c1.14.65,2.28,1.3,3.41,2a.93.93,0,0,0,.15.26,5.89,5.89,0,0,1,1.86,4.3c.05,1,.17,1.94.26,2.91C70.6,29.53,70.69,31.33,71,33.13Z"/><path class="cls-1" d="M80.26,30.9a11.9,11.9,0,0,1-.87,2.28,3.2,3.2,0,0,1-3.14,1.87,3,3,0,0,1-2.59-2.36.8.8,0,0,0-.13-.19c-.06-.66-.11-1.32-.19-2a28.58,28.58,0,0,0-.23-3.46,6.21,6.21,0,0,0-.56-2.2c-.74-2-.84-3.9.66-5.63a2,2,0,0,1,2.3-.58c.82.37,1.74.45,2.54.89,2.06,1.17,3.45,2.72,3,5.31a7.21,7.21,0,0,0-.64,2.9C80.35,28.8,80.32,29.85,80.26,30.9Z"/><path class="cls-1" d="M91.86,36c-1.21,2.27-2.64,2.46-5,1.81-.43-.12-.85-.26-1.28-.39-1.46-.7-2.77-1.56-3-3.34a5.24,5.24,0,0,1,.68-3c.16-.33.31-.67.47-1,.79-1.24,1.5-2.55,2.4-3.72,1.12-1.45,2.93-2.08,4.26-.62a5.73,5.73,0,0,1,.89,1.4c.15.33.27.68.41,1a14.88,14.88,0,0,1,.43,6.89C92,35.37,91.93,35.68,91.86,36Z"/><path class="cls-6" d="M73.21,19.24c-1.5,1.73-1.4,3.64-.66,5.63a6.21,6.21,0,0,1,.56,2.2l-2.61.65c-.09-1-.21-1.94-.26-2.91a5.89,5.89,0,0,0-1.86-4.3.93.93,0,0,1-.15-.26c0-.06,0-.12.07-.17,1.25-.24,2.5-.45,3.73-.71A8,8,0,0,1,73.21,19.24Z"/><path class="cls-4" d="M63.85,43.19c2.53-.43,5-1.16,7.47-1.77a21.91,21.91,0,0,1,2.77-.67,11.86,11.86,0,0,0-.81,5.17,4.23,4.23,0,0,1,.1,1.33l-1.57.2c-.08-.36-.13-.72-.24-1.07a3.64,3.64,0,0,0-5.22-2.33c-.27.11-.53.24-.79.37-1,.49-1.15.42-1.54-.63C64,43.6,63.91,43.39,63.85,43.19Z"/><path class="cls-4" d="M53.19,45.72A20.49,20.49,0,0,0,56,45c-.26,2.5,1.15,4.2,2.78,5.79a8.23,8.23,0,0,1-2.42.72,8.69,8.69,0,0,0-2.67-5.21C53.49,46.15,53.35,45.93,53.19,45.72Z"/><path class="cls-4" d="M50.91,53a4.4,4.4,0,0,1-1.74.45C49.51,52.5,50,52.36,50.91,53Z"/><path class="cls-7" d="M63.9,88a4.87,4.87,0,0,0-4.92.8,3.8,3.8,0,0,1-2.21,1,2.71,2.71,0,0,1-2.44-2c-.15-.74.28-1,.85-1.31a4.37,4.37,0,0,0,2.68-3,5.08,5.08,0,0,0-.36-2.86,3.19,3.19,0,0,1-.33-.89L59,79.05a7.12,7.12,0,0,0,4.81,1.15c.53,0,.78.19.76.74,0,.74,0,1.48,0,2.22a3.27,3.27,0,0,0,2.23,3.36c.07,0,.12.1.17.16A15.8,15.8,0,0,1,63.9,88Z"/><path class="cls-7" d="M67.37,86.66l-.22,0A.15.15,0,0,1,67.37,86.66Z"/><path class="cls-8" d="M83.48,44.41A4.13,4.13,0,0,0,85,44.1c.27.93.56,1.85.88,2.77a1.84,1.84,0,0,1-.53,1.89c-1.3,1.39-3.37,1.59-5.4.47a4.84,4.84,0,0,1-2.56-3.42C79.88,47,82,46.82,83.48,44.41Z"/><path class="cls-5" d="M43.91,82.49c.08.22,0,.38-.2.43A.4.4,0,0,1,43.91,82.49Z"/><path class="cls-11" d="M70.5,27.72l2.61-.65a28.58,28.58,0,0,1,.23,3.46c.08.65.13,1.31.19,2a17.52,17.52,0,0,0-2.57.63C70.69,31.33,70.6,29.53,70.5,27.72Z"/></g><path class="cls-15" d="M67.26,66.81a.09.09,0,0,0,.12,0c-.08.36-.07.76-.45,1A1.56,1.56,0,0,1,67.26,66.81Z"/><path class="cls-15" d="M65.69,70.85c0-.08,0-.12.09-.14Z"/><path class="cls-15" d="M65.57,70.91a.05.05,0,0,1,.06,0v.13Z"/></svg>